<svg xmlns="http://www.w3.org/2000/svg" style="display:none"><symbol id="icon-auth" viewBox="0 0 20 20"><path d="M12.5 2.5H13.5C14.9001 2.5 15.6002 2.5 16.135 2.77248C16.6054 3.01217 16.9878 3.39462 17.2275 3.86502C17.5 4.3998 17.5 5.09987 17.5 6.5V13.5C17.5 14.9001 17.5 15.6002 17.2275 16.135C16.9878 16.6054 16.6054 16.9878 16.135 17.2275C15.6002 17.5 14.9001 17.5 13.5 17.5H12.5" stroke="#F4C550" stroke-width="2" stroke-linecap="round" stroke-linejoin="round"/><path d="M8.33333 14.1666L12.5 9.99992L8.33333 5.83325M12.5 9.99992L2.5 9.99992" stroke="#F4C550" stroke-width="2" stroke-linecap="round" stroke-linejoin="round"/></symbol><symbol id="icon-book-open" viewBox="0 0 16 16"><path d="M14.6667 4.13333C14.6667 3.3866 14.6667 3.01323 14.5213 2.72801C14.3935 2.47713 14.1895 2.27316 13.9387 2.14532C13.6534 2 13.2801 2 12.5333 2H12.2667C10.7732 2 10.0265 2 9.45603 2.29065C8.95426 2.54631 8.54631 2.95426 8.29065 3.45603C8 4.02646 8 4.77319 8 6.26667V14L8.0667 13.8999C8.5298 13.2053 8.76135 12.858 9.06727 12.6065C9.33809 12.3839 9.65016 12.2169 9.9856 12.1151C10.3645 12 10.7819 12 11.6168 12H12.5333C13.2801 12 13.6534 12 13.9387 11.8547C14.1895 11.7268 14.3935 11.5229 14.5213 11.272C14.6667 10.9868 14.6667 10.6134 14.6667 9.86667V4.13333Z" stroke="black" stroke-width="1.5" stroke-linecap="round" stroke-linejoin="round"/><path d="M1.33331 4.13333C1.33331 3.3866 1.33331 3.01323 1.47864 2.72801C1.60647 2.47713 1.81044 2.27316 2.06133 2.14532C2.34654 2 2.71991 2 3.46665 2H3.73331C5.22679 2 5.97352 2 6.54395 2.29065C7.04572 2.54631 7.45367 2.95426 7.70933 3.45603C7.99998 4.02646 7.99998 4.77319 7.99998 6.26667V14L7.93328 13.8999C7.47018 13.2053 7.23863 12.858 6.93271 12.6065C6.66188 12.3839 6.34982 12.2169 6.01438 12.1151C5.63548 12 5.21805 12 4.3832 12H3.46665C2.71991 12 2.34654 12 2.06133 11.8547C1.81044 11.7268 1.60647 11.5229 1.47864 11.272C1.33331 10.9868 1.33331 10.6134 1.33331 9.86667V4.13333Z" stroke="black" stroke-width="1.5" stroke-linecap="round" stroke-linejoin="round"/></symbol><symbol id="icon-close" viewBox="0 0 32 32"><path d="M24 8L8 24" stroke="#121417" stroke-width="2.5" stroke-linecap="round" stroke-linejoin="round"/><path d="M8 8L24 24" stroke="#121417" stroke-width="2.5" stroke-linecap="round" stroke-linejoin="round"/></symbol><symbol id="icon-eye-off" viewBox="0 0 20 20"><g clip-path="url(#clip0_4_621)"><path d="M14.9499 14.9499C13.5254 16.0358 11.7908 16.6373 9.99992 16.6666C4.16659 16.6666 0.833252 9.99994 0.833252 9.99994C1.86983 8.06819 3.30753 6.38045 5.04992 5.04994M8.24992 3.53327C8.82353 3.39901 9.41081 3.33189 9.99992 3.33327C15.8333 3.33327 19.1666 9.99994 19.1666 9.99994C18.6607 10.9463 18.0575 11.8372 17.3666 12.6583M11.7666 11.7666C11.5377 12.0122 11.2617 12.2092 10.955 12.3459C10.6484 12.4825 10.3173 12.556 9.98166 12.5619C9.64599 12.5678 9.31256 12.5061 9.00126 12.3803C8.68997 12.2546 8.40719 12.0675 8.16979 11.8301C7.9324 11.5927 7.74525 11.3099 7.61951 10.9986C7.49377 10.6873 7.43202 10.3539 7.43795 10.0182C7.44387 9.68252 7.51734 9.35148 7.65398 9.04481C7.79062 8.73815 7.98763 8.46215 8.23325 8.23327" stroke="#121417" stroke-width="2" stroke-linecap="round" stroke-linejoin="round"/><path d="M0.833252 0.833374L19.1666 19.1667" stroke="#121417" stroke-width="2" stroke-linecap="round" stroke-linejoin="round"/></g><defs><clipPath id="clip0_4_621"><rect width="20" height="20" fill="white"/></clipPath></defs></symbol><symbol id="icon-favorite" viewBox="0 0 26 26"><path d="M22.5766 4.99419C22.0233 4.44061 21.3663 4.00147 20.6433 3.70187C19.9202 3.40226 19.1452 3.24805 18.3625 3.24805C17.5798 3.24805 16.8047 3.40226 16.0817 3.70187C15.3586 4.00147 14.7016 4.44061 14.1483 4.99419L13 6.14252L11.8516 4.99419C10.734 3.87652 9.21809 3.24863 7.63747 3.24863C6.05685 3.24863 4.54097 3.87652 3.4233 4.99419C2.30563 6.11186 1.67773 7.62774 1.67773 9.20836C1.67773 10.789 2.30563 12.3049 3.4233 13.4225L4.57163 14.5709L13 22.9992L21.4283 14.5709L22.5766 13.4225C23.1302 12.8692 23.5693 12.2122 23.869 11.4892C24.1686 10.7661 24.3228 9.99105 24.3228 9.20836C24.3228 8.42566 24.1686 7.65064 23.869 6.92756C23.5693 6.20448 23.1302 5.54751 22.5766 4.99419Z" fill="#F4C550" stroke="#F4C550" stroke-linecap="round" stroke-linejoin="round"/></symbol><symbol id="icon-favorite-uncoloured" viewBox="0 0 26 26"><path d="M22.5766 4.99419C22.0233 4.44061 21.3663 4.00147 20.6433 3.70187C19.9202 3.40226 19.1452 3.24805 18.3625 3.24805C17.5798 3.24805 16.8047 3.40226 16.0817 3.70187C15.3586 4.00147 14.7016 4.44061 14.1483 4.99419L13 6.14252L11.8516 4.99419C10.734 3.87652 9.21809 3.24863 7.63747 3.24863C6.05685 3.24863 4.54097 3.87652 3.4233 4.99419C2.30563 6.11186 1.67773 7.62774 1.67773 9.20836C1.67773 10.789 2.30563 12.3049 3.4233 13.4225L4.57163 14.5709L13 22.9992L21.4283 14.5709L22.5766 13.4225C23.1302 12.8692 23.5693 12.2122 23.869 11.4892C24.1686 10.7661 24.3228 9.99105 24.3228 9.20836C24.3228 8.42566 24.1686 7.65064 23.869 6.92756C23.5693 6.20448 23.1302 5.54751 22.5766 4.99419Z" stroke="#121417" stroke-width="2" stroke-linecap="round" stroke-linejoin="round"/></symbol><symbol id="icon-logo" viewBox="0 0 28 28"><g clip-path="url(#clip0_4_550)"><path d="M14 28C21.732 28 28 21.732 28 14C28 6.26801 21.732 0 14 0C6.26801 0 0 6.26801 0 14C0 21.732 6.26801 28 14 28Z" fill="#FFDA44"/><path d="M0 14C0 6.26806 6.26806 0 14 0C21.7319 0 28 6.26806 28 14" fill="#338AF3"/></g><defs><clipPath id="clip0_4_550"><rect width="28" height="28" fill="white"/></clipPath></defs></symbol><symbol id="icon-logo-uncoloured" viewBox="0 0 28 28"><g clip-path="url(#clip0_36_402)"><path d="M14 28C21.732 28 28 21.732 28 14C28 6.26801 21.732 0 14 0C6.26801 0 0 6.26801 0 14C0 21.732 6.26801 28 14 28Z" fill="#8A8A89"/><path d="M0 14C0 6.26806 6.26806 0 14 0C21.7319 0 28 6.26806 28 14" fill="#8A8A89"/></g><defs><clipPath id="clip0_36_402"><rect width="28" height="28" fill="white"/></clipPath></defs></symbol><symbol id="icon-star" viewBox="0 0 16 16"><g clip-path="url(#clip0_44_535)"><path d="M9.7998 4.69727C9.95896 4.99878 10.249 5.20939 10.585 5.26758L14.3848 5.92383L11.6973 8.69141C11.4597 8.93598 11.3489 9.27679 11.3975 9.61426L11.9463 13.4316L8.48535 11.7305L8.36816 11.6807C8.13008 11.5961 7.86992 11.5961 7.63184 11.6807L7.51465 11.7305L4.05273 13.4316L4.60254 9.61426C4.65107 9.27679 4.54025 8.93598 4.30273 8.69141L1.61426 5.92383L5.41504 5.26758C5.75098 5.20939 6.04104 4.99878 6.2002 4.69727L8 1.28613L9.7998 4.69727Z" fill="#FFC531" stroke="#FFC531" stroke-width="1.2"/></g><defs><clipPath id="clip0_44_535"><rect width="16" height="16" fill="white"/></clipPath></defs></symbol></svg>